<svg xmlns="http://www.w3.org/2000/svg" viewBox="0 0 1080 554" role="img" aria-labelledby="title desc">
<title id="title">TileWeave workflow</title><desc id="desc">The base agent plans, generates or edits, and evaluates candidates. TileWeave links diagnosis, abstraction scheduling, and a retained search tree to select the next modification, source candidate, and abstraction level.</desc>
<defs><marker id="arrow" markerWidth="8" markerHeight="8" refX="6" refY="3" orient="auto"><path d="M0 0L6 3L0 6" fill="none" stroke="#a195b6" stroke-width="1.2"/></marker><marker id="purple" markerWidth="8" markerHeight="8" refX="6" refY="3" orient="auto"><path d="M0 0L6 3L0 6" fill="none" stroke="#7b63bf" stroke-width="1.2"/></marker></defs>
<rect x="1" y="1" width="1078" height="552" rx="14" fill="#fdfcfe" stroke="#e6e1ee"/>
<g font-family="Arial,Helvetica,sans-serif">
<text x="32" y="32" fill="#857492" font-size="11" font-weight="700" letter-spacing="1.4">BASE WORKFLOW · AKO / KDA</text>
<g fill="#fff" stroke="#e2dce9"><rect x="32" y="52" width="151" height="87" rx="8"/><rect x="230" y="52" width="222" height="87" rx="8"/><rect x="500" y="52" width="220" height="87" rx="8"/><rect x="768" y="52" width="280" height="87" rx="8"/></g>
<g stroke="#a195b6" stroke-width="1.5" fill="none" marker-end="url(#arrow)"><path d="M184 95H216"/><path d="M453 95H486"/><path d="M721 95H754"/></g>
<g text-anchor="middle"><g fill="#40354e" font-size="17" font-weight="700"><text x="107" y="87">Task</text><text x="341" y="87">Analyze &amp; Plan</text><text x="610" y="87">Generate / Edit</text><text x="908" y="87">Evaluate &amp; Record</text></g><g fill="#8c7b99" font-size="11"><text x="107" y="110">Reference + constraints</text><text x="341" y="110">Choose the next modification</text><text x="610" y="110">Produce candidate source</text><text x="908" y="110">Compile · Check · Time · Save</text></g></g>
<path d="M909 140V166H342V142" fill="none" stroke="#b5a7c5" stroke-width="1.3" marker-end="url(#arrow)"/>
<rect x="536" y="154" width="173" height="24" fill="#fdfcfe"/><text x="622" y="171" text-anchor="middle" font-size="10" fill="#8c7b99">Continue the search</text>
<rect x="32" y="198" width="1016" height="318" rx="11" fill="#f6f3fc" stroke="#d9ceeb"/>
<text x="55" y="230" fill="#5746b2" font-size="17" font-weight="700">TileWeave</text><text x="178" y="229" fill="#8a78a1" font-size="11">Evidence and history → modification, source candidate, target level</text>
<path d="M341 195V179" fill="none" stroke="#7b63bf" stroke-width="1.3" marker-end="url(#purple)"/>
<path d="M909 179V194" fill="none" stroke="#7b63bf" stroke-width="1.3" marker-end="url(#purple)"/>
<text x="276" y="190" text-anchor="end" fill="#8a78a1" font-size="9">Plan</text><text x="939" y="190" fill="#8a78a1" font-size="9">Feedback</text>
<rect x="56" y="254" width="385" height="133" rx="8" fill="#fff" stroke="#dfd6ec"/>
<text x="77" y="280" fill="#5746b2" font-size="14" font-weight="700">01  Cross-Level Diagnosis</text>
<text x="77" y="303" fill="#8c7b99" font-size="11">When existing evidence is insufficient</text>
<rect x="77" y="321" width="94" height="29" rx="4" fill="#f2ecfb"/><rect x="196" y="321" width="94" height="29" rx="4" fill="#edf5f3"/>
<text x="124" y="340" text-anchor="middle" fill="#7458a0" font-size="11">High source</text><text x="243" y="340" text-anchor="middle" fill="#408078" font-size="11">Native code</text><path d="M173 335H189" stroke="#b2a2c7" fill="none" marker-end="url(#arrow)"/>
<text x="77" y="369" fill="#8c7b99" font-size="10">Source correspondence + candidate-bound measurements</text>
<path d="M444 320H491" stroke="#7b63bf" stroke-width="1.5" fill="none" marker-end="url(#purple)"/>
<rect x="507" y="254" width="517" height="133" rx="8" fill="#fff" stroke="#dfd6ec"/>
<text x="529" y="280" fill="#5746b2" font-size="14" font-weight="700">02  Abstraction Scheduling</text>
<text x="529" y="303" fill="#8c7b99" font-size="11">Choose the edit, its source, and its representation</text>
<g fill="#f3eff9"><rect x="529" y="321" width="137" height="29" rx="4"/><rect x="680" y="321" width="137" height="29" rx="4"/><rect x="831" y="321" width="169" height="29" rx="4"/></g>
<g fill="#705493" text-anchor="middle" font-size="11" font-weight="700"><text x="597" y="340">Stay</text><text x="748" y="340">Lower</text><text x="915" y="340">Rollback</text></g>
<g fill="#8c7b99" text-anchor="middle" font-size="9"><text x="597" y="369">Edit existing representation</text><text x="748" y="369">Export to native code</text><text x="915" y="369">Restore retained High source</text></g>
<path d="M249 419V396" stroke="#a899b9" fill="none" marker-end="url(#arrow)"/><path d="M766 389V413" stroke="#a899b9" fill="none" marker-end="url(#arrow)"/>
<rect x="56" y="421" width="968" height="70" rx="8" fill="#fff" stroke="#dfd6ec"/>
<text x="77" y="449" fill="#5746b2" font-size="14" font-weight="700">03  Heterogeneous Search Tree</text>
<text x="77" y="473" fill="#8c7b99" font-size="11">Retain candidate versions, derivation paths, actions, and evaluation evidence</text>
<path d="M745 449H805M805 449L857 438M805 449L857 475M857 438H918M918 438L962 456" stroke="#c1b2d3" stroke-width="1.4" fill="none"/>
<g stroke="#b7a3d1" fill="#f0eafa"><circle cx="745" cy="449" r="7"/><circle cx="805" cy="449" r="7"/><circle cx="857" cy="438" r="7"/><circle cx="918" cy="438" r="7"/></g><g stroke="#95bcb4" fill="#e4f2ed"><circle cx="857" cy="475" r="7"/><circle cx="962" cy="456" r="7"/></g>
<text x="540" y="538" fill="#8c7b99" font-size="10" text-anchor="middle">At termination, return the best measured correct implementation under the evaluation protocol.</text>
</g></svg>
